<svg width="1765" height="384" viewBox="0 0 1765 384" version="1.1" xmlns="http://www.w3.org/2000/svg" xmlns:xlink="http://www.w3.org/1999/xlink">
<title>logo</title>
<desc>Created using Figma</desc>
<g id="Canvas" transform="translate(-13059 -1440)">
<g id="logo">
<g id="Group 8">
<g id="Vector">
<use xlink:href="#path0_fill" transform="translate(13059 1440)" fill="#425AFF"/>
<use xlink:href="#path1_fill" transform="translate(13059 1440)" fill="#425AFF"/>
</g>
<g id="Vector">
<use xlink:href="#path2_fill" transform="translate(13237.2 1618.51)" fill="#2F44CC"/>
<use xlink:href="#path3_fill" transform="translate(13237.2 1618.51)" fill="#2F44CC"/>
</g>
</g>
<g id="exaQuark">
<use xlink:href="#path4_fill" transform="translate(13576 1416)" fill="#333333"/>
</g>
</g>
</g>
<defs>
<path id="path0_fill" d="M 142.281 3.62668C 61.0812 20.2719 0 92.2444 0 178.508L 75.4499 178.508C 76.078 153.07 86.0815 127.822 105.46 108.408C 125.54 88.2938 151.873 78.2621 178.189 78.3134L 178.189 0C 165.889 0.000210051 153.879 1.24899 142.281 3.62668Z"/>
<path id="path1_fill" fill-rule="evenodd" d="M 356.346 174.876C 354.415 77.9657 275.391 0 178.189 0L 178.189 178.508L 178.193 178.508L 178.193 78.3134C 204.375 78.3652 230.541 88.3969 250.517 108.408C 268.973 126.897 278.925 150.679 280.374 174.876L 356.346 174.876ZM 174.109 283.744L 174.109 356.97C 77.5821 354.796 0 275.728 0 178.508L 75.4499 178.508C 74.7797 205.65 84.7832 233.008 105.46 253.722C 124.502 272.796 149.167 282.804 174.109 283.744Z"/>
<path id="path2_fill" d="M 192.545 139.714C 207.566 154.761 207.566 179.158 192.545 194.206C 177.524 209.254 153.17 209.254 138.149 194.206C 123.128 179.158 123.128 154.761 138.149 139.714C 153.17 124.666 177.524 124.666 192.545 139.714Z"/>
<path id="path3_fill" fill-rule="evenodd" d="M 3.71607 178.47L 3.71607 105.234C 28.6456 104.286 53.2956 94.2788 72.3273 75.2134C 91.8923 55.6137 101.901 30.066 102.353 4.38083L 178.14 4.38083C 175.848 99.7072 98.9588 176.518 3.71607 178.47Z"/>
<path id="path4_fill" d="M 137.92 298L 67.2 298C 50.3467 298 37.3333 293.52 28.16 284.56C 18.9867 275.6 14.4 262.693 14.4 245.84L 14.4 186.96C 14.4 170.107 18.9867 157.2 28.16 148.24C 37.3333 139.28 50.3467 134.8 67.2 134.8L 92.48 134.8C 109.333 134.8 122.347 139.28 131.52 148.24C 140.693 157.2 145.28 170.107 145.28 186.96L 145.28 227.6C 145.28 232.08 143.04 234.32 138.56 234.32L 58.24 234.32C 55.68 234.32 54.4 235.493 54.4 237.84L 54.4 244.88C 54.4 251.493 55.7867 256.293 58.56 259.28C 61.5467 262.053 66.4533 263.44 73.28 263.44L 137.92 263.44C 142.4 263.44 144.64 265.787 144.64 270.48L 144.64 291.6C 144.64 293.947 144.107 295.653 143.04 296.72C 142.187 297.573 140.48 298 137.92 298ZM 58.24 207.12L 101.76 207.12C 104.107 207.12 105.28 205.947 105.28 203.6L 105.28 188.24C 105.28 181.413 103.893 176.613 101.12 173.84C 98.3467 171.067 93.5467 169.68 86.72 169.68L 73.28 169.68C 66.4533 169.68 61.6533 171.067 58.88 173.84C 56.1067 176.613 54.72 181.413 54.72 188.24L 54.72 203.6C 54.72 205.947 55.8933 207.12 58.24 207.12ZM 201.965 298L 169.645 298C 164.098 298 162.605 295.76 165.165 291.28L 205.485 214.8L 165.165 141.52C 163.032 137.04 164.312 134.8 169.005 134.8L 201.645 134.8C 206.765 134.8 210.072 137.04 211.565 141.52L 231.725 190.16L 233.005 190.16L 250.605 141.52C 252.098 137.04 255.405 134.8 260.525 134.8L 292.525 134.8C 298.072 134.8 299.458 137.04 296.685 141.52L 258.285 214.8L 299.565 291.28C 300.632 293.2 300.738 294.8 299.885 296.08C 299.245 297.36 297.858 298 295.725 298L 262.765 298C 258.285 298 255.085 295.76 253.165 291.28L 233.005 242.32L 231.725 242.32L 211.565 291.28C 210.072 295.76 206.872 298 201.965 298ZM 380.817 298L 373.137 298C 356.284 298 343.271 293.52 334.097 284.56C 324.924 275.6 320.337 262.693 320.337 245.84L 320.337 186.96C 320.337 170.107 324.924 157.2 334.097 148.24C 343.271 139.28 356.284 134.8 373.137 134.8L 447.058 134.8C 451.751 134.8 454.097 137.04 454.097 141.52L 454.097 291.28C 454.097 295.76 451.751 298 447.058 298L 420.178 298C 415.698 298 413.457 295.76 413.457 291.28L 413.457 280.72L 412.178 280.72C 409.831 286.48 405.671 290.853 399.697 293.84C 393.724 296.613 387.431 298 380.817 298ZM 413.457 238.48L 413.457 173.52C 413.457 171.173 412.178 170 409.618 170L 379.538 170C 372.711 170 367.911 171.493 365.137 174.48C 362.364 177.253 360.978 182.053 360.978 188.88L 360.978 243.92C 360.978 250.747 362.364 255.653 365.137 258.64C 367.911 261.413 372.711 262.8 379.538 262.8L 391.377 262.8C 406.097 262.8 413.457 254.693 413.457 238.48ZM 551.243 262.8L 573.962 262.8C 580.789 262.8 585.589 261.413 588.362 258.64C 591.349 255.653 592.842 250.747 592.842 243.92L 592.842 146.32C 592.842 139.493 591.349 134.693 588.362 131.92C 585.589 128.933 580.789 127.44 573.962 127.44L 551.243 127.44C 544.416 127.44 539.616 128.933 536.842 131.92C 534.069 134.693 532.683 139.493 532.683 146.32L 532.683 243.92C 532.683 250.747 534.069 255.653 536.842 258.64C 539.616 261.413 544.416 262.8 551.243 262.8ZM 609.803 340.56L 586.442 340.56C 580.683 340.56 576.523 338.32 573.962 333.84L 553.163 298L 544.523 298C 527.669 298 514.656 293.52 505.483 284.56C 496.309 275.6 491.723 262.693 491.723 245.84L 491.723 144.4C 491.723 127.547 496.309 114.64 505.483 105.68C 514.656 96.72 527.669 92.24 544.523 92.24L 580.362 92.24C 597.216 92.24 610.229 96.72 619.403 105.68C 628.576 114.64 633.163 127.547 633.163 144.4L 633.163 245.84C 633.163 259.92 629.749 271.333 622.923 280.08C 616.309 288.827 606.816 294.373 594.442 296.72L 614.923 332.24C 615.989 334.8 615.989 336.827 614.923 338.32C 613.856 339.813 612.149 340.56 609.803 340.56ZM 730.23 298L 719.67 298C 703.243 298 690.763 293.52 682.23 284.56C 673.91 275.6 669.75 262.693 669.75 245.84L 669.75 141.52C 669.75 137.04 671.99 134.8 676.47 134.8L 703.67 134.8C 708.15 134.8 710.39 137.04 710.39 141.52L 710.39 243.92C 710.39 250.747 711.777 255.653 714.55 258.64C 717.537 261.413 722.337 262.8 728.95 262.8L 740.79 262.8C 755.51 262.8 762.87 254.693 762.87 238.48L 762.87 141.52C 762.87 137.04 765.11 134.8 769.59 134.8L 796.47 134.8C 801.163 134.8 803.51 137.04 803.51 141.52L 803.51 291.28C 803.51 295.76 801.163 298 796.47 298L 769.59 298C 765.11 298 762.87 295.76 762.87 291.28L 762.87 280.72L 761.59 280.72C 759.243 286.48 755.083 290.853 749.11 293.84C 743.137 296.613 736.843 298 730.23 298ZM 896.13 298L 888.45 298C 871.597 298 858.583 293.52 849.41 284.56C 840.237 275.6 835.65 262.693 835.65 245.84L 835.65 186.96C 835.65 170.107 840.237 157.2 849.41 148.24C 858.583 139.28 871.597 134.8 888.45 134.8L 962.37 134.8C 967.063 134.8 969.41 137.04 969.41 141.52L 969.41 291.28C 969.41 295.76 967.063 298 962.37 298L 935.49 298C 931.01 298 928.77 295.76 928.77 291.28L 928.77 280.72L 927.49 280.72C 925.143 286.48 920.983 290.853 915.01 293.84C 909.037 296.613 902.743 298 896.13 298ZM 928.77 238.48L 928.77 173.52C 928.77 171.173 927.49 170 924.93 170L 894.85 170C 888.023 170 883.223 171.493 880.45 174.48C 877.677 177.253 876.29 182.053 876.29 188.88L 876.29 243.92C 876.29 250.747 877.677 255.653 880.45 258.64C 883.223 261.413 888.023 262.8 894.85 262.8L 906.69 262.8C 921.41 262.8 928.77 254.693 928.77 238.48ZM 1038.39 298L 1011.2 298C 1006.72 298 1004.48 295.76 1004.48 291.28L 1004.48 141.52C 1004.48 137.04 1006.72 134.8 1011.2 134.8L 1038.39 134.8C 1042.88 134.8 1045.12 137.04 1045.12 141.52L 1045.12 152.4L 1046.39 152.4C 1048.74 146.64 1052.9 142.267 1058.88 139.28C 1064.85 136.293 1071.14 134.8 1077.76 134.8L 1089.28 134.8C 1093.54 134.8 1095.67 137.04 1095.67 141.52L 1095.67 163.6C 1095.67 166.16 1095.14 167.973 1094.08 169.04C 1093.22 169.893 1091.62 170.213 1089.28 170L 1067.19 170C 1052.47 170 1045.12 178.32 1045.12 194.96L 1045.12 291.28C 1045.12 295.76 1042.88 298 1038.39 298ZM 1209.48 134.8L 1240.52 134.8C 1243.08 134.8 1244.78 135.547 1245.64 137.04C 1246.49 138.533 1246.17 140.453 1244.68 142.8L 1202.12 212.88L 1202.12 214.16L 1246.6 290C 1247.88 292.133 1247.98 294.053 1246.92 295.76C 1245.85 297.253 1243.93 298 1241.16 298L 1213.64 298C 1210.01 298 1207.34 297.573 1205.64 296.72C 1204.14 295.867 1202.54 294.053 1200.84 291.28L 1160.2 219.92C 1158.28 216.507 1158.28 212.987 1160.2 209.36L 1198.6 141.2C 1200.94 136.933 1204.57 134.8 1209.48 134.8ZM 1149.96 298L 1122.76 298C 1118.28 298 1116.04 295.76 1116.04 291.28L 1116.04 79.76C 1116.04 75.28 1118.28 73.04 1122.76 73.04L 1149.96 73.04C 1154.44 73.04 1156.68 75.28 1156.68 79.76L 1156.68 291.28C 1156.68 295.76 1154.44 298 1149.96 298Z"/>
</defs>
</svg>
